<?xml version="1.0" standalone="no"?>
<!DOCTYPE svg PUBLIC "-//W3C//DTD SVG 20010904//EN"
 "http://www.w3.org/TR/2001/REC-SVG-20010904/DTD/svg10.dtd">
<svg version="1.0" xmlns="http://www.w3.org/2000/svg"
 width="230.000000pt" height="234.000000pt" viewBox="0 0 230.000000 234.000000"
 preserveAspectRatio="xMidYMid meet">

<g transform="translate(0.000000,234.000000) scale(0.100000,-0.100000)"
fill="#000000" stroke="none">
<path d="M172 2284 l-22 -15 0 -594 0 -594 22 -15 c17 -13 51 -16 148 -16
l126 0 73 -74 73 -73 -21 -68 c-12 -37 -19 -70 -16 -73 5 -6 384 35 418 44 14
4 17 -1 17 -30 l0 -36 -99 0 c-90 0 -100 -2 -125 -25 -51 -47 -31 -57 119 -54
l110 2 3 -30 c3 -28 0 -31 -32 -37 -20 -4 -36 -11 -36 -16 0 -4 23 -2 50 5 36
10 60 10 86 4 19 -6 41 -8 47 -6 7 3 -1 8 -18 12 -54 12 -56 14 -53 42 3 24 7
28 38 27 205 -4 196 -2 208 -29 11 -23 9 -25 -36 -39 l-47 -16 45 7 c56 8 76
8 120 -1 30 -5 29 -4 -10 10 -48 18 -62 31 -57 53 1 10 28 13 122 12 144 -2
162 5 120 49 -28 29 -31 30 -127 30 -108 0 -105 -2 -111 75 -2 24 2 31 19 33
13 2 45 39 90 102 l69 100 311 0 c300 0 312 1 338 21 l26 20 0 585 c0 571 0
584 -20 604 -20 20 -33 20 -983 20 -855 0 -965 -2 -985 -16z m1958 -14 c20
-20 20 -33 20 -592 0 -518 -2 -573 -17 -590 -15 -17 -38 -18 -325 -18 l-309 0
32 45 32 45 259 0 258 0 0 535 0 535 -367 1 c-203 1 -433 2 -513 1 -80 0 -333
-1 -563 -1 l-417 -1 2 -532 3 -533 137 -5 136 -5 41 -47 c23 -25 41 -48 41
-51 0 -3 -39 8 -87 24 -86 29 -115 30 -79 3 18 -12 5 -14 -105 -14 -84 0 -129
4 -137 12 -9 9 -12 155 -12 594 l0 583 22 15 c20 14 129 16 975 16 940 0 953
0 973 -20z m-1095 -64 c-49 -15 -85 -34 -85 -44 0 -4 -26 -35 -58 -68 -35 -35
-66 -79 -76 -106 -11 -28 -27 -50 -42 -57 -16 -7 -24 -19 -24 -35 0 -18 -6
-25 -22 -28 -22 -3 -23 -7 -23 -88 0 -80 1 -85 22 -88 15 -2 23 -11 25 -30 2
-16 12 -31 26 -37 12 -5 22 -13 22 -16 0 -3 -22 -75 -49 -160 -27 -85 -57
-180 -66 -211 l-16 -58 -215 0 -214 0 0 520 0 520 418 -1 c350 0 411 -2 377
-13z m1035 -384 c0 -220 -3 -454 -7 -520 l-6 -122 -234 0 c-128 0 -233 3 -233
6 0 3 13 25 29 48 l30 43 -64 144 c-34 79 -66 156 -69 171 -6 24 -3 27 26 30
27 2 35 9 42 34 5 17 19 35 30 40 19 8 21 18 21 84 0 68 -2 76 -22 85 -13 5
-23 17 -23 27 0 9 -12 26 -26 37 -14 11 -39 47 -54 78 -15 33 -47 77 -73 101
-26 23 -47 47 -47 52 0 12 -33 30 -85 46 -34 11 24 13 363 13 l402 1 0 -398z
m-772 302 c88 -35 122 -61 154 -120 23 -45 25 -56 21 -132 -3 -46 -9 -80 -13
-75 -4 4 -20 59 -36 120 l-28 113 -91 21 -91 21 -114 -21 c-62 -11 -114 -22
-115 -23 -1 -2 -28 -50 -59 -108 l-56 -105 0 43 c0 24 -4 51 -10 61 -7 14 -3
31 15 68 34 68 68 97 155 132 99 40 175 41 268 5z m-328 -1 c0 -3 -18 -21 -39
-40 -22 -18 -52 -58 -67 -88 -36 -76 -61 -75 -30 0 26 60 136 165 136 128z
m467 -35 c38 -40 83 -114 83 -138 0 -27 -28 -6 -39 30 -7 23 -32 60 -60 89
-43 44 -52 61 -31 61 3 0 24 -19 47 -42z m-162 -46 c22 -6 53 -13 69 -16 28
-7 27 -8 -45 -61 -40 -30 -76 -55 -81 -55 -18 0 -199 105 -188 108 36 12 177
39 190 36 8 -1 33 -7 55 -12z m-83 -140 c26 -15 29 -14 99 37 39 29 77 55 84
57 14 6 95 -272 95 -325 0 -18 7 -39 15 -47 8 -8 17 -30 21 -49 5 -30 2 -38
-17 -54 -104 -80 -214 -161 -221 -161 -12 0 -196 109 -203 120 -5 8 24 259 31
268 1 2 31 -26 66 -63 l63 -66 63 71 c34 39 60 76 56 81 -3 5 -32 27 -65 50
l-59 40 -69 -47 -69 -48 -16 -120 c-9 -67 -28 -206 -42 -310 -25 -182 -28
-196 -91 -355 -35 -91 -66 -167 -68 -169 -4 -4 -275 -39 -275 -36 0 0 68 54
150 119 87 69 152 127 155 139 3 12 11 59 20 105 18 102 21 351 3 351 -6 0
-47 -28 -91 -62 -92 -71 -89 -78 -37 92 23 74 34 97 52 105 21 9 24 19 28 90
5 74 9 88 63 188 l59 108 86 -47 c48 -26 99 -54 114 -62z m-442 -121 c0 -73
-6 -87 -27 -70 -16 14 -18 120 -1 137 20 20 28 2 28 -67z m868 -3 c-2 -46 -7
-73 -15 -76 -10 -3 -13 16 -13 72 0 62 3 76 15 76 13 0 15 -12 13 -72z m-404
11 c4 -23 4 -44 2 -47 -6 -6 -96 20 -96 28 1 6 72 58 81 59 4 1 9 -18 13 -40z
m66 15 c22 -15 40 -30 40 -34 0 -6 -67 -30 -84 -30 -3 0 -6 20 -6 45 0 25 2
45 5 45 3 0 23 -12 45 -26z m-101 -75 c25 -9 31 -16 31 -40 0 -16 -1 -29 -3
-29 -2 0 -18 18 -36 40 -17 22 -30 40 -28 40 2 0 18 -5 36 -11z m131 8 c0 -2
-18 -21 -40 -42 l-40 -39 0 31 c0 25 5 32 33 41 36 11 47 13 47 9z m201 -425
l1 -201 -88 -125 c-87 -124 -87 -125 -133 -130 -248 -30 -403 -47 -405 -44 -2
1 26 75 61 163 59 150 65 170 85 320 12 88 23 162 24 163 1 2 50 -24 108 -58
l105 -61 118 89 c65 48 119 88 121 87 1 -2 3 -93 3 -203z m72 69 l46 -103 -45
-64 c-25 -35 -48 -64 -50 -64 -2 0 -4 77 -4 172 0 94 2 169 4 167 2 -2 24 -51
49 -108z m-688 -261 c-9 -52 -19 -98 -23 -101 -18 -17 -293 -229 -296 -229 -3
0 44 164 121 422 l39 127 84 64 85 64 3 -126 c2 -82 -3 -159 -13 -221z m-236
10 c-6 -16 -14 -30 -17 -30 -4 1 -32 14 -62 30 l-55 29 72 1 72 0 -10 -30z
m-19 -54 c0 -20 -19 -41 -27 -31 -4 6 -24 27 -43 48 l-35 38 53 -22 c28 -12
52 -27 52 -33z m-103 -23 c45 -16 83 -32 83 -38 0 -5 -6 -29 -13 -52 l-13 -43
-79 80 c-44 44 -75 80 -70 80 5 0 47 -12 92 -27z m759 -263 c7 -34 7 -53 0
-60 -7 -7 27 -10 105 -10 103 0 118 -2 134 -20 18 -20 17 -20 -119 -20 l-137
0 -33 73 c-35 76 -33 87 15 87 22 0 26 -6 35 -50z m-78 -5 l22 -45 -100 0
-100 0 0 35 c0 37 4 39 75 48 78 10 80 9 103 -38z m-188 -70 c0 -52 -4 -95 -9
-95 -9 0 -24 167 -16 181 17 27 25 -1 25 -86z m-40 1 c0 -2 3 -11 6 -20 5 -14
-9 -16 -115 -16 -117 0 -142 7 -103 29 16 10 212 16 212 7z m260 0 c0 -2 3
-11 6 -20 5 -14 -8 -16 -105 -16 -104 0 -111 1 -111 20 0 19 7 20 105 20 58 0
105 -2 105 -4z"/>
<path d="M1807 1133 c-12 -12 -7 -41 7 -46 19 -7 40 18 32 38 -6 15 -28 20
-39 8z m28 -23 c-3 -5 -10 -10 -16 -10 -5 0 -9 5 -9 10 0 6 7 10 16 10 8 0 12
-4 9 -10z"/>
<path d="M1907 1133 c-12 -12 -7 -41 7 -46 19 -7 40 18 32 38 -6 15 -28 20
-39 8z m28 -23 c-3 -5 -10 -10 -16 -10 -5 0 -9 5 -9 10 0 6 7 10 16 10 8 0 12
-4 9 -10z"/>
<path d="M2000 1125 c-15 -18 -5 -35 20 -35 10 0 22 5 25 10 7 11 -12 40 -25
40 -4 0 -13 -7 -20 -15z m30 -15 c0 -5 -4 -10 -10 -10 -5 0 -10 5 -10 10 0 6
5 10 10 10 6 0 10 -4 10 -10z"/>
<path d="M1040 1885 c-15 -18 -10 -45 13 -59 15 -9 21 -7 33 8 18 25 18 31 -2
50 -19 20 -28 20 -44 1z"/>
<path d="M1323 1874 c-8 -22 9 -49 33 -49 30 0 27 59 -4 63 -14 2 -25 -3 -29
-14z"/>
<path d="M2031 390 c-8 -107 -7 -301 1 -306 4 -3 8 33 8 79 0 80 2 87 29 116
35 37 85 42 122 12 21 -17 24 -30 30 -118 l6 -98 1 88 c3 123 -17 157 -89 157
-35 0 -88 -25 -91 -43 -1 -6 -5 26 -8 73 -5 62 -7 73 -9 40z"/>
<path d="M113 403 l57 -4 0 -159 c0 -100 4 -160 10 -160 6 0 10 60 10 160 l0
159 58 4 c31 2 1 3 -68 3 -69 0 -99 -1 -67 -3z"/>
<path d="M1232 353 c-2 -26 -6 -33 -22 -33 -11 0 -20 -4 -20 -10 0 -5 9 -10
20 -10 19 0 20 -7 20 -100 0 -94 1 -100 24 -115 17 -11 29 -13 47 -6 23 9 23
10 -6 10 -48 1 -55 15 -55 118 l0 93 35 0 c19 0 35 5 35 10 0 6 -15 10 -34 10
-32 0 -35 3 -39 33 l-4 32 -1 -32z"/>
<path d="M382 237 c-2 -105 11 -140 62 -157 27 -9 42 -8 70 4 20 8 39 22 42
31 9 24 22 18 27 -12 2 -16 5 25 6 90 0 72 -3 117 -9 117 -6 0 -10 -33 -10
-79 0 -71 -3 -83 -26 -110 -20 -24 -34 -31 -61 -31 -41 0 -68 13 -79 37 -4 10
-11 58 -14 108 l-6 90 -2 -88z"/>
<path d="M752 304 c-32 -22 -52 -66 -52 -114 0 -32 7 -48 34 -78 30 -32 40
-37 78 -37 41 0 107 29 95 42 -3 3 -16 -2 -29 -11 -36 -26 -100 -21 -132 10
-14 15 -26 30 -26 35 0 4 -3 14 -6 23 -5 14 7 16 100 16 l106 0 0 31 c0 47
-56 99 -107 99 -21 0 -49 -7 -61 -16z m102 -5 c27 -13 61 -73 51 -89 -3 -6
-49 -10 -102 -10 l-95 0 6 28 c9 35 60 82 91 82 13 0 35 -5 49 -11z"/>
<path d="M1441 295 c-80 -68 -52 -198 48 -220 30 -6 111 20 111 37 0 5 -10 2
-22 -6 -12 -9 -42 -16 -66 -16 -35 0 -49 6 -73 29 -16 16 -29 39 -29 50 0 20
5 21 105 21 116 0 117 1 91 64 -29 69 -108 88 -165 41z m137 -20 c12 -14 22
-37 22 -51 0 -24 -1 -24 -95 -24 -104 0 -111 5 -81 59 31 56 111 64 154 16z"/>
<path d="M1744 286 c-29 -29 -34 -41 -34 -80 0 -26 7 -60 15 -75 19 -37 77
-65 118 -57 30 6 93 46 72 45 -5 0 -19 -6 -29 -14 -23 -17 -88 -20 -117 -5
-26 15 -49 62 -49 104 0 25 9 45 29 68 25 28 36 33 74 33 30 0 52 -6 66 -19
12 -11 24 -17 27 -14 14 15 -51 48 -93 48 -38 0 -50 -5 -79 -34z"/>
<path d="M1038 193 c18 -2 45 -2 60 0 15 2 0 4 -33 4 -33 0 -45 -2 -27 -4z"/>
</g>
</svg>
