<?xml version="1.0" standalone="no"?>
<!DOCTYPE svg PUBLIC "-//W3C//DTD SVG 20010904//EN"
 "http://www.w3.org/TR/2001/REC-SVG-20010904/DTD/svg10.dtd">
<svg version="1.0" xmlns="http://www.w3.org/2000/svg"
 width="236.000000pt" height="241.000000pt" viewBox="0 0 236.000000 241.000000"
 preserveAspectRatio="xMidYMid meet">

<g transform="translate(0.000000,241.000000) scale(0.100000,-0.100000)"
fill="#000000" stroke="none">
<path d="M232 2294 l-22 -15 0 -594 0 -594 22 -15 c17 -13 51 -16 148 -16
l126 0 73 -74 73 -73 -21 -68 c-12 -37 -19 -70 -16 -73 3 -3 54 0 113 7 59 8
155 19 215 25 l107 12 0 -33 0 -33 -90 0 c-108 0 -160 -21 -160 -66 0 -2 57
-5 128 -6 l127 -3 3 -31 c3 -29 0 -32 -32 -38 -20 -4 -36 -11 -36 -15 0 -5 21
-3 46 5 35 10 57 11 91 3 25 -5 48 -7 51 -5 2 3 -9 8 -24 11 -51 12 -54 14
-54 45 l0 30 115 0 114 0 16 -30 c12 -24 13 -31 3 -34 -7 -2 -29 -9 -48 -15
l-35 -11 40 7 c52 9 82 9 125 0 24 -4 21 -2 -12 9 -46 14 -67 41 -53 64 4 6
59 10 136 10 71 0 129 4 129 9 0 5 -14 21 -31 35 -28 24 -38 26 -125 26 -103
0 -101 -1 -107 75 -2 24 2 31 19 33 13 2 45 39 90 102 l69 100 311 0 c300 0
312 1 338 21 l26 20 0 585 c0 571 0 584 -20 604 -20 20 -33 20 -983 20 -855 0
-965 -2 -985 -16z m1958 -14 c20 -20 20 -33 20 -594 0 -509 -2 -576 -16 -590
-13 -14 -57 -16 -325 -16 l-310 0 32 45 32 45 259 0 258 0 0 535 0 535 -367 2
c-203 2 -429 3 -503 2 -74 0 -327 -1 -563 -2 l-427 -2 2 -532 3 -533 137 -5
136 -5 41 -47 c23 -25 41 -48 41 -51 0 -3 -39 8 -87 24 -89 30 -105 31 -83 4
11 -13 -1 -15 -107 -15 -79 0 -123 4 -131 12 -9 9 -12 155 -12 594 l0 583 22
15 c20 14 129 16 975 16 940 0 953 0 973 -20z m-1110 -70 c-30 -10 -56 -23
-58 -29 -2 -6 -28 -34 -57 -62 -31 -30 -66 -76 -84 -114 -19 -38 -39 -65 -51
-68 -13 -3 -20 -14 -20 -30 0 -19 -6 -26 -22 -29 -21 -3 -23 -9 -26 -68 -4
-82 3 -110 28 -110 13 0 20 -8 22 -27 2 -18 12 -32 26 -38 28 -12 29 -6 -51
-250 l-62 -190 -212 -3 -212 -2 -1 520 0 520 417 0 418 -1 -55 -19z m1048
-494 c-1 -283 -6 -517 -9 -520 -3 -4 -110 -5 -238 -4 l-232 3 30 46 31 46 -64
144 c-35 79 -67 156 -70 171 -6 24 -3 27 26 30 27 2 35 9 42 34 5 17 19 35 30
40 19 8 21 18 21 84 0 68 -2 76 -22 85 -13 5 -23 18 -23 27 0 10 -11 25 -25
34 -14 9 -37 43 -51 75 -16 36 -45 76 -75 104 -27 25 -49 50 -49 55 0 12 -33
30 -85 46 -34 11 24 13 363 13 l404 1 -4 -514z m-766 417 c78 -30 133 -76 160
-133 12 -27 14 -54 11 -118 -3 -46 -9 -80 -13 -75 -4 4 -20 58 -36 120 l-28
112 -93 21 c-87 20 -97 21 -170 6 -43 -8 -94 -17 -113 -20 -32 -6 -39 -14 -90
-109 l-55 -102 -7 50 c-12 75 -11 83 15 128 36 61 63 82 147 116 100 41 173
41 272 4z m-338 -2 c3 -4 -12 -22 -33 -39 -22 -18 -51 -56 -66 -87 -28 -57
-40 -71 -48 -57 -10 15 42 105 84 148 44 45 54 50 63 35z m473 -33 c38 -40 83
-114 83 -138 0 -27 -28 -6 -39 30 -7 23 -32 60 -60 89 -43 44 -52 61 -31 61 3
0 24 -19 47 -42z m-162 -46 c22 -6 53 -13 69 -16 28 -7 27 -8 -45 -61 -40 -30
-76 -55 -81 -55 -18 0 -199 105 -188 108 36 12 177 39 190 36 8 -1 33 -7 55
-12z m-108 -127 l52 -28 72 52 c87 64 96 68 102 44 37 -125 77 -285 77 -304 0
-14 9 -42 20 -64 34 -66 30 -73 -87 -160 -59 -44 -114 -84 -124 -89 -12 -6
-43 7 -112 48 -53 31 -99 61 -102 66 -5 8 24 260 31 268 1 2 31 -26 66 -63
l63 -67 62 73 c34 39 60 76 57 81 -3 4 -32 26 -65 49 l-59 40 -69 -48 c-69
-47 -69 -47 -76 -103 -3 -30 -14 -113 -25 -185 -11 -71 -27 -186 -36 -255 -14
-108 -25 -147 -81 -290 -35 -90 -66 -166 -68 -168 -2 -2 -55 -10 -117 -18 -62
-7 -123 -16 -135 -19 -13 -3 -23 -4 -23 -2 0 2 68 57 150 122 87 69 152 127
155 139 3 12 11 59 20 105 18 102 21 351 3 351 -6 0 -47 -28 -91 -62 -92 -71
-89 -78 -37 92 23 74 34 97 52 105 21 9 24 19 28 90 5 74 9 88 63 188 l59 108
61 -34 c34 -19 85 -47 114 -62z m-417 -141 c0 -74 -5 -85 -28 -62 -15 15 -16
120 0 136 21 21 28 2 28 -74z m868 4 c-2 -46 -7 -73 -15 -76 -10 -3 -13 16
-13 72 0 62 3 76 15 76 13 0 15 -12 13 -72z m-403 11 c4 -22 4 -43 1 -46 -7
-8 -97 20 -94 29 3 8 70 56 80 57 3 1 9 -17 13 -40z m65 15 c22 -15 40 -30 40
-34 0 -6 -67 -30 -84 -30 -3 0 -6 20 -6 45 0 25 2 45 5 45 3 0 23 -12 45 -26z
m-87 -81 c11 -4 17 -15 17 -36 0 -17 -3 -27 -8 -21 -4 5 -21 24 -37 43 -24 27
-26 33 -10 26 11 -4 28 -10 38 -12z m117 14 c0 -2 -18 -21 -40 -42 l-40 -39 0
27 c0 22 7 31 33 42 31 14 47 18 47 12z m210 -421 l0 -193 -86 -124 c-48 -68
-89 -127 -93 -131 -6 -7 -438 -61 -450 -56 -4 2 21 75 56 163 59 149 65 171
85 320 12 88 22 162 24 163 1 2 50 -24 108 -58 l106 -62 112 86 c62 47 119 85
126 85 9 1 12 -44 12 -193z m63 66 l46 -103 -45 -64 c-25 -36 -47 -65 -50 -65
-2 0 -4 77 -4 172 0 94 2 169 4 167 2 -2 24 -50 49 -107z m-688 -268 l-17 -91
-150 -117 c-83 -64 -152 -116 -154 -114 -2 2 4 24 12 48 8 25 45 147 82 272
l67 227 85 64 85 64 3 -131 c2 -89 -2 -160 -13 -222z m-236 16 c-6 -16 -13
-30 -15 -30 -7 0 -114 52 -114 56 0 2 31 4 69 4 l70 0 -10 -30z m-19 -54 c0
-20 -19 -41 -27 -31 -4 6 -24 27 -43 48 l-35 38 53 -22 c28 -12 52 -27 52 -33z
m-95 -27 c39 -13 72 -25 74 -26 6 -4 -21 -93 -28 -93 -3 0 -36 30 -73 67 -65
64 -83 91 -55 81 6 -3 44 -16 82 -29z m746 -236 c0 -16 4 -37 8 -48 5 -11 4
-25 -1 -32 -8 -10 14 -13 104 -13 102 0 117 -2 133 -20 18 -20 17 -20 -119
-20 l-137 0 -33 73 c-19 39 -32 75 -29 80 2 4 20 7 39 7 30 0 34 -3 35 -27z
m-73 -28 l22 -45 -100 0 -100 0 0 35 c0 37 4 39 75 48 78 10 80 9 103 -38z
m-188 -70 c0 -52 -4 -95 -9 -95 -10 0 -25 166 -16 180 17 28 25 1 25 -85z
m-32 -17 c3 -16 -8 -18 -117 -18 -70 0 -121 4 -121 10 0 21 40 30 135 27 86
-2 100 -4 103 -19z m252 18 c0 -2 3 -11 6 -20 5 -14 -8 -16 -105 -16 -104 0
-111 1 -111 20 0 19 7 20 105 20 58 0 105 -2 105 -4z"/>
<path d="M1867 1143 c-12 -12 -7 -41 7 -46 19 -7 40 18 32 38 -6 15 -28 20
-39 8z m23 -23 c0 -5 -4 -10 -10 -10 -5 0 -10 5 -10 10 0 6 5 10 10 10 6 0 10
-4 10 -10z"/>
<path d="M1967 1143 c-12 -12 -7 -41 7 -46 19 -7 40 18 32 38 -6 15 -28 20
-39 8z m23 -23 c0 -5 -4 -10 -10 -10 -5 0 -10 5 -10 10 0 6 5 10 10 10 6 0 10
-4 10 -10z"/>
<path d="M2060 1135 c-15 -17 -5 -35 20 -35 22 0 33 23 17 39 -15 15 -22 14
-37 -4z m30 -15 c0 -5 -4 -10 -10 -10 -5 0 -10 5 -10 10 0 6 5 10 10 10 6 0
10 -4 10 -10z"/>
<path d="M1107 1898 c-21 -11 -22 -41 -2 -58 23 -19 45 -4 45 29 0 32 -17 44
-43 29z"/>
<path d="M1387 1894 c-23 -23 7 -69 37 -58 25 10 17 58 -9 62 -12 2 -24 0 -28
-4z"/>
<path d="M2093 265 c1 -132 2 -155 6 -87 3 51 3 132 0 180 -4 61 -6 33 -6 -93z"/>
<path d="M173 413 l57 -4 0 -159 c0 -100 4 -160 10 -160 6 0 10 60 10 160 l0
159 58 4 c31 2 1 3 -68 3 -69 0 -99 -1 -67 -3z"/>
<path d="M1292 363 c-2 -27 -6 -33 -24 -34 l-23 0 23 -9 c21 -9 22 -15 22
-108 0 -110 6 -123 60 -120 l35 1 -32 4 c-48 6 -54 21 -51 124 l3 94 35 6 35
6 -37 2 c-34 1 -37 4 -41 34 l-4 32 -1 -32z"/>
<path d="M442 247 c-3 -128 16 -157 99 -157 29 0 47 7 65 25 31 31 32 31 37
-2 2 -16 5 25 6 90 0 72 -3 117 -9 117 -6 0 -10 -33 -10 -79 0 -71 -3 -83 -26
-110 -20 -25 -34 -31 -64 -31 -22 0 -47 8 -61 19 -21 17 -24 30 -30 118 l-6
98 -1 -88z"/>
<path d="M808 310 c-58 -45 -63 -140 -10 -192 24 -24 37 -30 76 -30 43 0 105
26 93 39 -3 3 -16 -2 -29 -11 -35 -25 -100 -21 -132 9 -14 13 -26 28 -26 34 0
5 -3 16 -6 25 -5 14 7 16 100 16 l106 0 0 31 c0 48 -56 99 -108 99 -24 0 -49
-8 -64 -20z m111 -4 c27 -14 51 -53 51 -81 0 -12 -19 -15 -101 -15 l-101 0 6
28 c9 36 60 82 92 82 14 0 37 -6 53 -14z"/>
<path d="M1501 304 c-55 -46 -61 -144 -12 -188 41 -37 132 -37 162 1 13 16 13
16 -11 0 -14 -10 -43 -17 -68 -17 -35 0 -49 6 -73 29 -16 16 -29 39 -29 50 0
20 5 21 105 21 58 0 105 3 105 8 0 4 -5 24 -10 44 -22 76 -108 103 -169 52z
m130 -13 c17 -17 29 -40 29 -55 l0 -26 -95 0 c-104 0 -111 5 -81 59 31 56 102
67 147 22z"/>
<path d="M1804 296 c-29 -29 -34 -41 -34 -80 0 -83 40 -128 115 -128 39 0 103
28 91 39 -3 3 -15 -2 -28 -11 -25 -18 -90 -21 -119 -6 -27 15 -49 62 -49 106
0 28 8 44 34 70 41 41 89 46 130 13 15 -12 29 -19 32 -16 3 2 -7 14 -22 26
-18 14 -41 21 -71 21 -38 0 -50 -5 -79 -34z"/>
<path d="M2138 314 c-16 -8 -28 -19 -28 -25 0 -6 12 -1 26 10 43 34 111 25
130 -16 4 -10 11 -58 14 -108 l6 -90 2 88 c2 92 -11 138 -43 151 -28 10 -79 6
-107 -10z"/>
<path d="M1093 203 c15 -2 39 -2 55 0 15 2 2 4 -28 4 -30 0 -43 -2 -27 -4z"/>
</g>
</svg>
